<svg xmlns="http://www.w3.org/2000/svg" version="1.1" xmlns:xlink="http://www.w3.org/1999/xlink" xmlns:svgjs="http://svgjs.dev/svgjs" viewBox="0 0 325 100"><defs><linearGradient x1="50%" y1="0%" x2="50%" y2="100%" id="ssspill-grad"><stop stop-color="hsl(0, 0%, 0%)" stop-opacity="1" offset="45%"></stop><stop stop-color="hsl(0, 0%, 0%)" stop-opacity="1" offset="100%"></stop></linearGradient></defs><rect width="100%" height="100%" fill="hsl(0, 100%, 50%)"></rect><g fill="url(#ssspill-grad)">
    <rect width="100%" height="40" fill="hsl(0, 0%, 0%)"></rect>

    <rect x="0" width="7.69%" height="94.61813180059328" rx="15"></rect>
      <rect x="50" width="7.69%" height="77.92038845149754" rx="15"></rect>
      <rect x="100" width="7.69%" height="97.37878096249258" rx="15"></rect>
      <rect x="150" width="7.69%" height="64.44341262110477" rx="15"></rect>
      <rect x="200" width="7.69%" height="55.20809271793549" rx="15"></rect>
      <rect x="250" width="7.69%" height="96.05949752048906" rx="15"></rect>
      <rect x="300" width="7.69%" height="59.921525504349994" rx="15"></rect>
  </g><g fill="hsl(0, 100%, 50%)">
    <rect x="25" y="6.68232595947781" width="7.69%" height="60" rx="15"></rect>
      <rect x="75" y="2.8668697449470755" width="7.69%" height="60" rx="15"></rect>
      <rect x="125" y="2.8631384980068955" width="7.69%" height="60" rx="15"></rect>
      <rect x="175" y="9.43949612777112" width="7.69%" height="60" rx="15"></rect>
      <rect x="225" y="5.104811877963099" width="7.69%" height="60" rx="15"></rect>
      <rect x="275" y="2.633637237608488" width="7.69%" height="60" rx="15"></rect>
  </g></svg>