<svg xmlns="http://www.w3.org/2000/svg" version="1.1" xmlns:xlink="http://www.w3.org/1999/xlink" viewBox="0 0 700 700" style="overflow: hidden; display: block;" width="700" height="700"><defs><linearGradient id="two-547" x1="350" y1="-350" x2="350" y2="350" spreadMethod="pad" gradientUnits="userSpaceOnUse"><stop offset="0%" stop-color="hsl(1, 100%, 45%)" stop-opacity="1"></stop><stop offset="100%" stop-color="hsl(0, 0%, 0%)" stop-opacity="1"></stop></linearGradient></defs><g id="two-0" transform="matrix(1 0 0 1 0 0)" opacity="1"><path transform="matrix(1 0 0 1 350 350)" id="two-551" d="M 239.906555 25.215195 C 247.200125 33.232347 259.895825 44.463048 255.249283 54.25491 C 247.383256 70.831332 218.854141 62.292058 200.741994 65.225027 C 186.794286 67.483633 161.88114 56.801946 158.246359 70.455818 C 145.323203 119.001 299.036062 115.184175 280.09212 161.71126 C 271.281742 183.349903 223.248567 133.326437 209.895627 152.498099 C 195.108515 173.728893 265.002188 203.874955 246.417132 221.874983 C 220.393998 247.078952 178.712375 144.371893 150.959083 167.657047 C 129.857333 185.361524 192.858129 222.523159 178.944408 246.295848 C 173.289736 255.957299 156.344198 254.845678 145.50952 252.029882 C 124.205086 246.493128 113.466381 200.745865 93.574482 210.171729 C 70.883263 220.924063 106.431491 265.037233 93.011535 286.260072 C 87.297399 295.29663 72.03518 293.494111 63.844867 300.366484 C 51.673681 310.57915 51.247755 342.55334 35.673472 339.410414 C -15.651187 329.052978 52.35872 185.055963 0 184.808188 C -48.610318 184.578151 14.117332 329.307237 -34.476547 328.022432 C -64.188315 327.236863 -21.687598 244.946757 -50.899929 239.465336 C -85.791361 232.918284 -74.599767 344.203006 -107.526447 330.932375 C -161.698992 309.0989 -69.222996 216.297518 -70.301873 157.90059 C -70.459679 149.358946 -68.435413 135.056546 -76.677796 132.809838 C -110.218361 123.667356 -117.728596 197.049791 -150.846279 207.62209 C -160.808156 210.802262 -172.096258 205.354632 -182.068715 202.207792 C -191.778967 199.143693 -199.888791 190.358023 -209.98996 189.075809 C -232.632918 186.201574 -264.788541 220.590271 -277.94847 201.941383 C -291.740051 182.397383 -237.212283 162.913589 -241.376172 139.358597 C -243.243815 128.793401 -267.221799 129.31131 -266.409408 118.61311 C -263.014197 73.902271 -136.894347 91.617368 -149.895816 48.704102 C -159.699034 16.347136 -218.796191 58.632985 -252.230895 53.613331 C -272.42492 50.581541 -292.851889 42.997525 -310.444039 32.628983 C -324.525286 24.329712 -352.687753 15.567967 -347.708014 0 C -329.733968 -56.191578 -222.463449 8.791352 -169.824722 -17.849298 C -163.753611 -20.921909 -154.572411 -26.513004 -156.016568 -33.162346 C -168.309307 -89.761881 -334.10886 -47.665564 -317.031796 -103.009875 C -302.134658 -151.289363 -187.380764 -28.120547 -166.658723 -74.201244 C -147.094866 -117.706424 -304.838355 -120.918241 -281.214349 -162.35918 C -258.614624 -202.003339 -184.641596 -78.324344 -152.812687 -111.024916 C -141.920995 -122.214886 -166.733785 -139.621617 -171.559423 -154.472799 C -176.582052 -169.930229 -184.780115 -186.45526 -182.355559 -202.526366 C -180.818348 -212.715734 -177.06104 -228.412329 -166.827127 -229.617841 C -124.427958 -234.612289 -114.912482 -113.654607 -78.172725 -135.399131 C -33.90934 -161.596534 -173.08168 -262.295669 -126.288975 -283.64968 C -83.228801 -303.300338 -98.112775 -149.107809 -52.249204 -160.806514 C -29.6149 -166.579986 -71.578553 -224.788244 -49.212437 -231.526309 C -33.572248 -236.238107 -36.219642 -188.68728 -20.124944 -191.476046 C 3.148862 -195.508754 -23.620085 -260.322386 -0.000001 -260.166194 C 24.408111 -260.00479 -1.301203 -201.087734 19.855823 -188.915546 C 26.207801 -185.261088 35.580827 -189.989166 41.345231 -194.514023 C 71.404353 -218.10939 60.304476 -309.215687 96.317074 -296.433475 C 140.499086 -280.751633 27.754832 -177.5218 69.83634 -156.85499 C 96.341884 -143.837751 107.611628 -203.666306 129.211825 -223.801446 C 152.236949 -245.264867 178.758995 -299.562676 204.837064 -281.934033 C 227.287352 -266.757752 190.769919 -228.725052 182.662782 -202.867573 C 176.824468 -184.246437 171.19098 -164.836138 163.264105 -147.003661 C 156.039129 -130.750195 125.391256 -112.964195 137.31199 -99.763001 C 169.267415 -64.375099 242.472167 -194.766224 270.365261 -156.095457 C 285.464918 -135.16141 236.604222 -115.963337 218.699677 -97.37137 C 205.393907 -83.554743 187.831598 -72.862964 176.535662 -57.359914 C 171.77302 -50.82345 162.087304 -42.387522 165.924785 -35.268402 C 177.654744 -13.50752 234.723329 -49.357256 240.162921 -25.242141 C 243.517986 -10.368269 201.482077 -15.247562 201.462595 -0.000001 C 201.44321 15.171893 229.696804 13.992551 239.906555 25.215195 Z " fill="rgb(255, 0, 0)" stroke="undefined" stroke-width="1" stroke-opacity="1" fill-opacity="1" visibility="visible" stroke-linecap="butt" stroke-linejoin="miter" stroke-miterlimit="4"></path></g></svg>