<svg xmlns="http://www.w3.org/2000/svg" version="1.1" xmlns:xlink="http://www.w3.org/1999/xlink" viewBox="0 0 700 700" style="overflow: hidden; display: block;" width="700" height="700"><defs><linearGradient id="two-547" x1="350" y1="-350" x2="350" y2="350" spreadMethod="pad" gradientUnits="userSpaceOnUse"><stop offset="0%" stop-color="hsl(1, 100%, 45%)" stop-opacity="1"></stop><stop offset="100%" stop-color="hsl(0, 0%, 0%)" stop-opacity="1"></stop></linearGradient></defs><g id="two-0" transform="matrix(1 0 0 1 0 0)" opacity="1"><path transform="matrix(1 0 0 1 350 350)" id="two-553" d="M 221.113594 23.239975 C 218.504296 36.728122 183.756758 25.110493 182.496112 38.790746 C 180.131729 64.448514 229.773065 62.872309 248.374673 80.701823 C 260.962431 92.767104 288.690297 109.820891 278.599297 124.040398 C 254.092567 158.573507 177.557042 53.65135 155.016926 89.499064 C 140.073717 113.264686 226.256177 129.747729 211.157283 153.414746 C 199.963589 170.960489 163.119948 118.982318 150.645718 135.642014 C 124.659879 170.346854 224.41897 202.909184 221.658403 246.176596 C 220.90862 257.92822 210.096032 270.492405 198.712047 273.503669 C 181.045282 278.17684 161.663053 264.867489 146.790506 254.248615 C 115.545232 231.939752 102.975816 188.340063 73.112278 164.212866 C 66.271708 158.686268 56.619051 147.02008 49.402841 152.046312 C -1.310476 187.369132 131.048332 320.262095 71.839361 337.97762 C 39.133323 347.763378 59.917394 246.075221 25.786614 245.343245 C 8.17789 244.965605 17.42757 294.61998 0 292.072519 C -31.818301 287.421503 10.643765 204.078457 -20.689833 196.850606 C -35.738514 193.379265 -36.785167 225.072716 -49.655211 233.609399 C -57.873889 239.060837 -70.172164 236.197976 -78.474816 241.520646 C -105.190643 258.647651 -108.618692 316.633181 -140.318907 315.161424 C -153.466587 314.551012 -159.807582 295.135321 -163.028517 282.373673 C -168.596868 260.311337 -157.605989 236.49228 -155.369837 213.848233 C -153.884264 198.804806 -155.209774 182.850817 -151.455103 168.207932 C -146.713052 149.714349 -114.797948 129.040069 -128.052036 115.29857 C -144.864001 97.868355 -173.334078 134.543865 -196.192044 142.541863 C -230.711901 154.620355 -278.008228 201.872378 -302.298699 174.532235 C -314.144819 161.198834 -276.948539 142.415583 -280.714128 124.981981 C -283.295948 113.028895 -300.04951 109.247687 -308.215978 100.145441 C -316.380295 91.045592 -332.860027 81.997762 -329.92948 70.128675 C -321.920884 37.692844 -269.19287 39.924581 -239.230252 25.144112 C -222.335908 16.810184 -186.228318 18.756362 -187.981049 0 C -191.653109 -39.295534 -306.303837 7.475496 -303.251816 -31.873051 C -300.699862 -64.774438 -233.372726 -28.475659 -203.911117 -43.342646 C -196.825695 -46.918109 -186.857605 -53.011655 -187.499051 -60.922135 C -189.820561 -89.551586 -268.717836 -88.209341 -256.372054 -114.144193 C -241.962867 -144.413649 -176.896275 -63.592859 -157.474643 -90.918028 C -147.599655 -104.811594 -192.8284 -119.303205 -185.158524 -134.525542 C -180.229131 -144.308865 -161.120808 -130.765586 -152.046794 -136.903548 C -145.740027 -141.169653 -142.282217 -150.042436 -141.948001 -157.649226 C -140.713029 -185.757316 -169.98625 -209.252924 -172.397372 -237.284626 C -173.716482 -252.620595 -178.397289 -279.492155 -163.423285 -283.057433 C -117.696101 -293.944977 -118.83296 -151.336777 -75.967503 -170.625805 C -30.493394 -191.088701 -151.198149 -303.9717 -103.703891 -319.167759 C -54.347891 -334.959492 -88.716022 -168.421105 -37.56756 -176.74147 C -8.984874 -181.39104 -36.581035 -236.366034 -27.741454 -263.942295 C -21.998595 -281.857912 -18.734506 -315.471117 -0.000001 -313.748309 C 25.879917 -311.368415 8.154662 -258.788811 25.131572 -239.110942 C 30.741198 -232.608847 40.871306 -231.57205 48.31019 -227.281579 C 55.495192 -223.137538 64.510406 -220.316772 69.410906 -213.624804 C 76.631862 -203.764095 67.245133 -180.402241 79.20995 -177.908461 C 121.770264 -169.037782 119.084908 -273.015701 161.91911 -280.452127 C 172.960442 -282.369008 184.646047 -272.050964 190.900769 -262.752368 C 198.916478 -250.835797 198.149455 -234.159908 197.909074 -219.800296 C 197.624101 -202.776831 192.88065 -185.468155 187.900979 -169.186803 C 182.972785 -153.073756 164.878775 -138.666511 168.091793 -122.125837 C 169.505416 -114.848482 176.794028 -108.216173 183.924886 -106.189083 C 222.408758 -95.249267 287.184816 -171.615599 301.838285 -134.387064 C 322.738416 -81.288293 174.156819 -101.497248 151.366416 -49.181931 C 149.173149 -44.147292 151.131566 -36.656779 155.222969 -32.993661 C 173.246968 -16.856405 221.598757 -47.29823 227.97491 -23.961129 C 231.387407 -11.471187 197.604964 -12.928839 196.905746 -0.000001 C 196.307714 11.057867 223.216882 12.367521 221.113594 23.239975 Z " fill="rgb(255, 0, 0)" stroke="undefined" stroke-width="1" stroke-opacity="1" fill-opacity="1" visibility="visible" stroke-linecap="butt" stroke-linejoin="miter" stroke-miterlimit="4"></path></g></svg>