<svg xmlns="http://www.w3.org/2000/svg" version="1.1" xmlns:xlink="http://www.w3.org/1999/xlink" viewBox="0 0 700 700" style="overflow: hidden; display: block;" width="700" height="700"><defs><linearGradient id="two-547" x1="350" y1="-350" x2="350" y2="350" spreadMethod="pad" gradientUnits="userSpaceOnUse"><stop offset="0%" stop-color="hsl(1, 100%, 45%)" stop-opacity="1"></stop><stop offset="100%" stop-color="hsl(0, 0%, 0%)" stop-opacity="1"></stop></linearGradient></defs><g id="two-0" transform="matrix(1 0 0 1 0 0)" opacity="1"><path transform="matrix(1 0 0 1 350 350)" id="two-555" d="M 184.497692 19.391488 C 180.36531 62.502432 315.87316 22.868663 307.427071 65.345641 C 299.758833 103.910656 227.288549 55.75011 188.347775 61.197902 C 178.221879 62.614508 161.883294 60.962811 158.867984 70.732583 C 154.191361 85.885099 178.112775 96.565954 188.302595 108.716554 C 211.860851 136.808016 273.975289 156.067879 262.922527 191.024397 C 258.782138 204.119186 235.741093 197.244804 222.325199 200.182508 C 210.683779 202.731652 193.988572 198.031605 187.000198 207.684761 C 175.623707 223.399297 210.582693 257.210166 193.354136 266.129138 C 161.654727 282.539459 146.439915 184.091184 112.297509 194.504992 C 100.422592 198.126972 107.957803 219.613284 102.807597 230.909645 C 98.242918 240.921726 94.936122 259.272933 83.965694 258.419837 C 43.978564 255.310305 71.633858 151.393888 31.614323 148.733698 C 23.319631 148.182331 20.698289 162.021878 17.850031 169.831702 C 1.179509 215.541689 45.649477 299.351079 0 316.186588 C -12.739416 320.88488 -16.737984 288.838782 -30.307633 288.357866 C -46.021134 287.80097 -53.39417 324.76396 -67.59678 318.017845 C -99.215216 302.999366 -64.351057 246.664118 -68.867615 211.952723 C -70.4737 199.609375 -65.983731 178.301415 -78.082542 175.376259 C -110.862408 167.451 -115.181904 237.484758 -145.56349 252.123358 C -157.167957 257.714678 -176.444049 264.023284 -184.551772 254.013721 C -199.445582 235.626246 -170.536194 207.952168 -166.2821 184.67498 C -163.981092 172.084522 -152.3548 154.205288 -162.259704 146.099292 C -180.495817 131.175185 -217.407324 187.055308 -230.414409 167.405866 C -246.544185 143.03906 -158.218568 125.088294 -173.076297 99.925646 C -189.239637 72.551851 -256.180795 148.803679 -267.482674 119.090959 C -284.508147 74.330874 -127.752048 91.859084 -142.029786 46.148274 C -153.823095 8.391476 -251.174462 93.766485 -261.523398 55.588514 C -268.64097 29.331277 -182.979093 46.544814 -187.312421 19.687328 C -195.255904 -29.545491 -333.142099 49.708668 -337.144305 0 C -339.563634 -30.048829 -278.758172 -18.42659 -249.641842 -26.238415 C -230.105672 -31.479912 -208.202352 -31.559621 -190.002784 -40.386339 C -182.76472 -43.896772 -174.049431 -48.1266 -170.898941 -55.528432 C -168.110195 -62.080374 -169.514844 -70.776827 -172.961926 -77.007611 C -196.927584 -120.326813 -281.746932 -120.036855 -291.852481 -168.501109 C -294.243902 -179.969898 -285.795548 -195.78689 -274.715384 -199.59241 C -240.293075 -211.41487 -206.335257 -171.508961 -173.363428 -156.097132 C -153.133241 -146.641054 -128.877552 -109.796704 -113.003966 -125.503619 C -88.493215 -149.757009 -152.633668 -185.3597 -159.257695 -219.199412 C -162.458232 -235.549772 -164.712807 -255.589803 -155.628013 -269.555626 C -149.758978 -278.577944 -137.506162 -286.321069 -126.839096 -284.885273 C -104.592221 -281.890825 -98.669377 -231.034848 -77.388253 -238.17655 C -55.073377 -245.665167 -89.036929 -306.595712 -65.577724 -308.518934 C -17.023179 -312.49951 -66.443514 -167.418469 -17.747213 -168.853453 C 4.118953 -169.497805 -18.323405 -220.773725 -0.000001 -232.723505 C 6.729281 -237.112069 16.776949 -225.911079 24.093072 -229.230276 C 44.348229 -238.419685 39.700464 -292.986883 60.747156 -285.792901 C 102.503456 -271.520155 7.383234 -165.507141 49.5631 -152.53954 C 105.954634 -135.202763 83.335361 -332.222085 137.273576 -308.321502 C 190.280311 -284.833668 35.873316 -177.05417 81.769989 -141.629778 C 94.28385 -131.971215 107.80693 -160.627726 121.902113 -167.783866 C 135.829614 -174.854873 151.871452 -178.25242 166.16672 -184.54684 C 196.04398 -197.702244 232.790717 -253.533343 254.475561 -229.130826 C 276.918621 -203.875069 217.656368 -171.207123 197.910904 -143.790689 C 184.754141 -125.522619 148.934464 -111.422755 155.923108 -90.022249 C 158.932266 -80.807656 175.855592 -86.967121 184.181451 -82.002866 C 190.840583 -78.03239 201.005526 -72.909948 200.570172 -65.1692 C 199.680413 -49.348981 160.584386 -50.3257 163.42913 -34.737935 C 165.910565 -21.140923 189.798945 -25.052909 203.114784 -21.348225 C 234.59488 -12.589948 300.631544 -32.665243 299.80344 -0.000001 C 298.825571 38.572842 188.179389 -19.017697 184.497692 19.391488 Z " fill="rgb(255, 0, 0)" stroke="undefined" stroke-width="1" stroke-opacity="1" fill-opacity="1" visibility="visible" stroke-linecap="butt" stroke-linejoin="miter" stroke-miterlimit="4"></path></g></svg>