<svg xmlns="http://www.w3.org/2000/svg" version="1.1" xmlns:xlink="http://www.w3.org/1999/xlink" xmlns:svgjs="http://svgjs.dev/svgjs" viewBox="0 0 2400 800" opacity="1"><defs><linearGradient x1="50%" y1="0%" x2="50%" y2="100%" id="sssurf-grad"><stop stop-color="hsla(0, 100%, 50%, 1.00)" stop-opacity="1" offset="0%"></stop><stop stop-color="hsla(0, 0%, 0%, 1.00)" stop-opacity="1" offset="100%"></stop></linearGradient></defs><g fill="url(#sssurf-grad)" transform="matrix(1,0,0,1,11.510009765625,400.2654113769531)"><path d="M-10,10C8.75,20.208333333333332,44.583333333333336,91.70833333333334,80,59C115.41666666666666,26.291666666666664,126.66666666666666,-149.5,160,-147C193.33333333333334,-144.5,206.66666666666666,71.625,240,71C273.3333333333333,70.375,286.6666666666667,-139.375,320,-150C353.3333333333333,-160.625,366.6666666666667,-8.541666666666664,400,20C433.3333333333333,48.541666666666664,446.6666666666667,-47.583333333333336,480,-13C513.3333333333334,21.583333333333336,526.6666666666666,202.04166666666666,560,186C593.3333333333334,169.95833333333334,606.6666666666666,-59.375,640,-90C673.3333333333334,-120.625,686.6666666666666,30.458333333333336,720,39C753.3333333333334,47.541666666666664,766.6666666666666,-53.375,800,-49C833.3333333333334,-44.625,846.6666666666666,78.75,880,60C913.3333333333334,41.25,926.6666666666666,-166.5,960,-139C993.3333333333334,-111.5,1006.6666666666666,192,1040,192C1073.3333333333333,192,1086.6666666666667,-132.33333333333334,1120,-139C1153.3333333333333,-145.66666666666666,1166.6666666666667,150,1200,160C1233.3333333333333,170,1246.6666666666667,-106.83333333333333,1280,-91C1313.3333333333333,-75.16666666666667,1326.6666666666667,247.45833333333334,1360,236C1393.3333333333333,224.54166666666666,1406.6666666666667,-137.45833333333334,1440,-146C1473.3333333333333,-154.54166666666666,1486.6666666666667,162.5,1520,195C1553.3333333333333,227.5,1566.6666666666667,6.25,1600,10C1633.3333333333333,13.75,1646.6666666666667,229.25,1680,213C1713.3333333333333,196.75,1726.6666666666667,-37.166666666666664,1760,-68C1793.3333333333333,-98.83333333333334,1806.6666666666667,80,1840,65C1873.3333333333333,50,1886.6666666666667,-174.58333333333334,1920,-140C1953.3333333333333,-105.41666666666666,1966.6666666666667,206,2000,231C2033.3333333333333,256,2046.6666666666667,13.75,2080,-20C2113.3333333333335,-53.75,2126.6666666666665,92.54166666666666,2160,69C2193.3333333333335,45.458333333333336,2206.6666666666665,-160.5,2240,-133C2273.3333333333335,-105.5,2286.6666666666665,188.91666666666666,2320,201C2353.3333333333335,213.08333333333334,2331.25,-116.45833333333333,2400,-75C2468.75,-33.54166666666667,3254.1666666666665,196.875,2650,400C2045.8333333333335,603.125,156.25,795.8333333333334,-500,900" transform="matrix(1,0,0,1,0,25)" opacity="NaN"></path></g></svg>