<svg xmlns="http://www.w3.org/2000/svg" version="1.1" xmlns:xlink="http://www.w3.org/1999/xlink" xmlns:svgjs="http://svgjs.dev/svgjs" viewBox="0 0 2400 800" opacity="1"><defs><linearGradient x1="50%" y1="0%" x2="50%" y2="100%" id="sssurf-grad"><stop stop-color="hsla(0, 0%, 100%, 1.00)" stop-opacity="1" offset="0%"></stop><stop stop-color="hsla(0, 0%, 0%, 1.00)" stop-opacity="1" offset="100%"></stop></linearGradient></defs><g fill="url(#sssurf-grad)" transform="matrix(1,0,0,1,11.510009765625,406.08619689941406)"><path d="M-10,10C8.75,21.875,44.583333333333336,85.54166666666667,80,67C115.41666666666666,48.45833333333333,126.66666666666666,-70.25,160,-79C193.33333333333334,-87.75,206.66666666666666,24.791666666666668,240,25C273.3333333333333,25.208333333333332,286.6666666666667,-110.5,320,-78C353.3333333333333,-45.5,366.6666666666667,202.25,400,181C433.3333333333333,159.75,446.6666666666667,-152.29166666666666,480,-180C513.3333333333334,-207.70833333333334,526.6666666666666,38.625,560,48C593.3333333333334,57.375,606.6666666666666,-134.58333333333334,640,-135C673.3333333333334,-135.41666666666666,686.6666666666666,41.208333333333336,720,46C753.3333333333334,50.791666666666664,766.6666666666666,-109.5,800,-112C833.3333333333334,-114.5,846.6666666666666,38.791666666666664,880,34C913.3333333333334,29.208333333333332,926.6666666666666,-162.70833333333334,960,-135C993.3333333333334,-107.29166666666666,1006.6666666666666,156.375,1040,167C1073.3333333333333,177.625,1086.6666666666667,-65.04166666666667,1120,-84C1153.3333333333333,-102.95833333333333,1166.6666666666667,69.54166666666667,1200,76C1233.3333333333333,82.45833333333333,1246.6666666666667,-56.333333333333336,1280,-53C1313.3333333333333,-49.666666666666664,1326.6666666666667,107.41666666666667,1360,92C1393.3333333333333,76.58333333333333,1406.6666666666667,-134.5,1440,-127C1473.3333333333333,-119.5,1486.6666666666667,133.20833333333334,1520,128C1553.3333333333333,122.79166666666667,1566.6666666666667,-161.16666666666666,1600,-152C1633.3333333333333,-142.83333333333334,1646.6666666666667,133.25,1680,172C1713.3333333333333,210.75,1726.6666666666667,31.5,1760,34C1793.3333333333333,36.5,1806.6666666666667,215.25,1840,184C1873.3333333333333,152.75,1886.6666666666667,-128.29166666666666,1920,-116C1953.3333333333333,-103.70833333333333,1966.6666666666667,210.91666666666666,2000,243C2033.3333333333333,275.0833333333333,2046.6666666666667,58,2080,38C2113.3333333333335,18,2126.6666666666665,157.83333333333334,2160,147C2193.3333333333335,136.16666666666666,2206.6666666666665,-35.875,2240,-14C2273.3333333333335,7.875,2286.6666666666665,248.66666666666666,2320,252C2353.3333333333335,255.33333333333334,2331.25,-28.833333333333336,2400,2C2468.75,32.833333333333336,3254.1666666666665,212.91666666666669,2650,400C2045.8333333333335,587.0833333333333,156.25,795.8333333333334,-500,900" transform="matrix(1,0,0,1,0,35)" opacity="NaN"></path></g></svg>